<?xml version="1.0" standalone="no"?>
<!DOCTYPE svg PUBLIC "-//W3C//DTD SVG 20010904//EN"
 "http://www.w3.org/TR/2001/REC-SVG-20010904/DTD/svg10.dtd">
<svg version="1.0" xmlns="http://www.w3.org/2000/svg"
 width="512.000000pt" height="512.000000pt" viewBox="0 0 512.000000 512.000000"
 preserveAspectRatio="xMidYMid meet">
<metadata>
Created by potrace 1.14, written by Peter Selinger 2001-2017
</metadata>
<g transform="translate(0.000000,512.000000) scale(0.100000,-0.100000)"
fill="#000000" stroke="none">
<path d="M2226 5108 c3 -4 0 -8 -6 -8 -6 0 -8 -5 -4 -12 5 -9 2 -9 -9 1 -9 7
-17 10 -17 6 0 -4 -7 -2 -16 5 -12 11 -15 11 -12 -1 2 -8 -3 -13 -9 -11 -7 1
-13 -3 -13 -10 0 -6 -6 -4 -13 7 -11 14 -16 15 -22 5 -6 -9 -4 -11 5 -5 9 5
11 4 6 -4 -6 -9 -11 -9 -24 1 -13 11 -14 11 -8 -1 6 -9 5 -12 -5 -9 -8 3 -20
-2 -28 -9 -11 -12 -15 -12 -22 -2 -4 7 -5 17 -2 23 3 5 1 6 -5 2 -6 -3 -9 -16
-7 -29 4 -20 3 -21 -9 -4 -13 17 -14 17 -20 0 -6 -15 -8 -15 -16 -3 -7 11 -10
11 -10 2 0 -10 -5 -10 -21 -1 -17 9 -20 8 -14 -2 6 -9 3 -10 -10 -5 -14 5 -16
4 -6 -7 9 -12 6 -13 -15 -9 -21 4 -25 2 -19 -9 7 -12 6 -12 -7 -1 -10 8 -19 9
-22 3 -7 -10 -25 -9 -43 2 -7 5 -13 4 -13 -2 0 -5 6 -11 13 -14 6 -2 9 -8 5
-12 -4 -4 -15 -2 -25 6 -14 12 -16 12 -8 0 6 -11 3 -13 -13 -9 -12 4 -20 3
-17 -2 3 -4 -2 -11 -11 -14 -10 -4 -13 -2 -8 7 4 6 -4 2 -17 -10 -20 -18 -28
-20 -39 -10 -10 10 -11 9 -5 -2 6 -11 3 -13 -13 -9 -12 4 -22 2 -22 -3 0 -5 5
-9 12 -9 6 0 8 -3 5 -6 -4 -4 -13 -1 -22 6 -12 10 -16 9 -21 -3 -3 -9 -12 -13
-19 -11 -7 3 -16 0 -21 -7 -5 -8 -3 -10 6 -4 9 5 11 4 6 -4 -6 -9 -11 -9 -22
0 -11 9 -14 8 -14 -7 0 -11 -3 -15 -8 -9 -12 18 -37 11 -34 -10 3 -16 2 -17
-12 -6 -12 10 -16 11 -16 1 0 -7 -6 -10 -14 -7 -8 3 -20 -2 -28 -11 -12 -16
-11 -16 6 -2 18 14 18 14 6 -7 -12 -19 -15 -20 -26 -5 -10 14 -12 14 -22 -5
-6 -11 -9 -23 -6 -26 3 -3 -11 -4 -31 -3 -20 1 -39 -3 -42 -8 -4 -5 0 -6 8 -2
8 4 6 1 -3 -7 -10 -8 -16 -16 -13 -19 3 -2 -2 -5 -10 -5 -8 0 -12 4 -10 8 3 4
-4 5 -16 2 -14 -4 -17 -8 -9 -13 8 -5 2 -10 -14 -14 -15 -4 -25 -10 -22 -15 3
-4 -6 -7 -19 -5 -21 2 -23 0 -15 -17 10 -17 8 -18 -17 -8 -15 6 -24 7 -21 3
13 -12 -11 -44 -29 -37 -12 5 -15 2 -11 -8 4 -11 -1 -15 -24 -13 -25 2 -27 0
-16 -14 10 -12 10 -14 1 -8 -7 4 -13 2 -13 -3 0 -6 -5 -11 -11 -11 -5 0 -7 5
-3 12 4 7 3 8 -4 4 -6 -4 -8 -14 -5 -24 6 -15 4 -15 -9 -4 -14 11 -16 11 -14
0 1 -7 5 -20 10 -28 4 -8 -3 -4 -15 10 -15 17 -20 19 -16 8 4 -10 2 -18 -4
-18 -6 0 -8 -4 -5 -9 4 -5 -4 -7 -16 -3 -21 5 -22 4 -9 -11 12 -15 12 -17 -4
-11 -13 5 -16 4 -11 -4 5 -8 1 -10 -10 -5 -12 5 -15 3 -9 -6 6 -10 2 -11 -16
-6 -19 6 -22 5 -12 -5 9 -10 7 -17 -12 -32 -14 -11 -30 -16 -37 -12 -8 5 -7 0
2 -11 8 -10 10 -16 3 -12 -16 10 -43 -20 -37 -41 5 -14 4 -14 -4 -2 -6 8 -8
18 -5 24 3 5 1 6 -5 2 -7 -4 -12 -15 -12 -24 0 -9 -5 -24 -11 -32 -9 -13 -10
-13 -6 2 3 9 0 19 -8 22 -8 3 -12 0 -9 -7 2 -7 -9 -23 -25 -35 -21 -15 -29
-28 -26 -43 4 -18 2 -19 -12 -7 -12 9 -15 9 -9 1 4 -7 2 -21 -4 -30 -11 -17
-11 -17 -6 0 5 15 3 16 -17 6 -29 -15 -37 -24 -14 -16 9 4 17 2 17 -3 0 -6 -5
-10 -11 -10 -5 0 -7 -6 -3 -12 5 -9 2 -8 -9 1 -15 12 -17 12 -11 -3 5 -12 0
-19 -14 -23 -22 -5 -36 -29 -26 -44 3 -5 -4 -9 -15 -9 -12 0 -21 -7 -21 -16 0
-9 -5 -12 -13 -8 -9 6 -9 4 1 -8 10 -13 10 -18 1 -24 -8 -4 -9 -3 -5 4 10 16
-2 15 -18 -1 -7 -7 -11 -17 -9 -24 2 -6 -1 -15 -8 -19 -8 -4 -9 -3 -5 4 5 8 2
10 -9 6 -13 -5 -13 -9 -3 -23 7 -9 8 -13 4 -9 -5 4 -16 2 -24 -5 -11 -8 -14
-8 -9 0 4 6 2 15 -4 19 -7 4 -9 3 -6 -2 3 -5 -3 -21 -14 -34 -10 -14 -19 -19
-19 -12 0 7 -4 11 -9 7 -6 -3 -8 -15 -6 -28 4 -21 4 -21 -10 -3 -14 19 -15 19
-15 1 0 -10 -3 -15 -7 -12 -11 11 -32 -27 -22 -39 6 -7 3 -16 -8 -25 -15 -12
-16 -12 -8 1 5 10 5 12 -2 5 -16 -15 -25 -93 -12 -101 8 -4 7 -9 -2 -14 -10
-7 -10 -12 2 -26 12 -15 12 -17 0 -9 -11 6 -13 4 -8 -8 3 -10 2 -17 -2 -17 -5
0 -11 5 -13 10 -2 6 -9 1 -15 -10 -11 -17 -10 -19 5 -14 14 5 14 3 -2 -10 -20
-16 -20 -16 0 -17 18 0 18 -1 -1 -8 -26 -11 -50 -55 -41 -76 3 -9 2 -14 -3
-11 -4 3 -17 -4 -27 -17 -14 -16 -15 -18 -2 -9 14 11 16 11 11 -7 -3 -12 -9
-21 -14 -21 -5 0 -9 -5 -9 -11 0 -5 5 -7 12 -3 7 4 8 3 4 -5 -6 -9 -11 -9 -22
0 -12 10 -15 10 -12 -2 2 -8 8 -17 13 -21 6 -4 2 -8 -8 -8 -15 0 -16 -3 -7
-20 10 -19 4 -26 -23 -21 -5 1 -6 -3 -2 -9 3 -6 11 -7 17 -4 7 5 8 2 4 -5 -5
-7 -14 -10 -22 -7 -8 3 -14 1 -14 -4 0 -6 5 -10 12 -10 9 0 9 -3 0 -12 -15
-15 -16 -32 -1 -22 7 4 7 -2 -1 -17 -17 -32 -25 -39 -16 -14 10 29 -8 6 -22
-28 -7 -16 -8 -26 -3 -23 5 3 8 -7 7 -23 -1 -25 -3 -28 -16 -18 -8 6 -12 8 -8
3 4 -5 1 -15 -7 -23 -10 -10 -12 -20 -6 -31 6 -11 6 -24 0 -35 -7 -11 -7 -17
0 -17 6 0 8 -7 5 -15 -4 -8 -10 -12 -15 -9 -16 10 -9 -9 9 -22 16 -13 16 -14
-2 -7 -15 5 -18 3 -13 -10 3 -9 1 -19 -5 -23 -6 -4 -8 -3 -4 4 3 6 2 13 -3 16
-12 8 -8 -37 4 -46 6 -5 5 -8 -2 -8 -7 0 -13 -5 -13 -11 0 -5 6 -7 13 -3 9 6
9 4 1 -7 -6 -8 -10 -24 -8 -37 2 -13 0 -21 -4 -18 -5 3 -7 -11 -6 -30 2 -19
-1 -34 -7 -34 -6 0 -7 5 -4 10 3 6 2 10 -3 10 -6 0 -10 -128 -11 -316 -2 -246
1 -319 11 -332 8 -10 9 -13 1 -9 -8 5 -11 -7 -9 -45 1 -29 7 -53 14 -56 7 -2
12 -12 12 -23 0 -10 5 -19 11 -19 6 0 3 -7 -6 -16 -13 -14 -14 -19 -3 -25 7
-5 9 -9 3 -9 -5 0 -3 -5 5 -10 8 -5 10 -10 5 -10 -6 0 -11 -9 -11 -20 0 -20 1
-20 19 2 l18 23 -11 -24 c-10 -19 -9 -26 1 -33 11 -8 10 -9 -3 -4 -10 3 -18 1
-18 -4 0 -9 15 -14 33 -11 4 1 4 -7 0 -16 -5 -10 -7 -31 -6 -48 2 -16 4 -38 4
-48 0 -9 4 -15 10 -12 17 11 31 -6 18 -21 -6 -8 -7 -14 -2 -14 6 0 9 -14 7
-31 -2 -18 0 -28 6 -24 6 3 10 1 10 -4 0 -6 -5 -11 -12 -11 -6 0 -8 -3 -5 -6
4 -4 13 -2 20 4 11 9 13 7 12 -11 -1 -12 2 -30 7 -41 6 -10 6 -16 1 -13 -5 3
-9 -5 -9 -18 0 -13 4 -21 8 -19 5 3 5 10 2 16 -4 6 2 5 15 -2 18 -9 21 -30 5
-30 -3 0 -2 5 2 12 5 7 3 8 -6 3 -10 -6 -9 -11 4 -21 11 -8 13 -14 7 -19 -6
-3 -11 -12 -10 -18 0 -9 2 -8 6 1 2 6 9 10 13 7 5 -3 7 -12 3 -20 -3 -10 1
-15 13 -15 16 0 17 -2 4 -10 -8 -5 -10 -10 -5 -10 6 0 16 -10 24 -22 13 -21
13 -22 -2 -9 -10 7 -17 9 -17 3 0 -5 12 -17 26 -27 20 -13 23 -19 13 -31 -8
-10 -8 -14 0 -14 6 0 11 -9 11 -20 0 -11 5 -20 11 -20 5 0 7 6 3 13 -5 8 -2 8
9 -2 18 -14 23 -26 8 -16 -5 3 -12 1 -16 -5 -3 -5 2 -10 12 -11 17 0 17 -1 1
-7 -15 -6 -13 -9 13 -21 16 -7 28 -16 25 -19 -3 -2 -14 1 -23 9 -17 13 -17 13
-1 -7 10 -11 18 -26 18 -33 0 -7 6 -11 14 -8 10 4 13 -1 11 -19 -1 -13 1 -24
6 -24 5 0 6 -7 3 -15 -4 -10 0 -15 16 -15 11 0 18 -5 15 -10 -3 -6 -1 -10 6
-10 8 0 8 -4 -1 -15 -10 -12 -9 -16 4 -21 9 -3 13 -11 9 -18 -4 -6 2 -4 12 4
10 8 16 10 12 3 -5 -7 2 -22 14 -34 17 -17 19 -23 8 -30 -11 -7 -10 -9 4 -9
10 0 15 -5 12 -10 -3 -6 -1 -10 5 -10 6 0 8 -5 5 -10 -3 -6 4 -10 17 -10 18 0
20 -2 8 -10 -9 -6 -10 -10 -3 -10 6 0 15 -9 18 -21 5 -16 9 -18 21 -8 12 10
13 9 7 -6 -5 -14 -3 -17 9 -13 11 5 14 0 10 -19 -3 -14 -1 -24 4 -21 5 3 15 0
22 -8 10 -11 10 -14 0 -15 -7 0 -3 -5 10 -11 12 -6 22 -17 22 -25 0 -7 5 -13
11 -13 5 0 7 -4 4 -10 -3 -6 1 -7 9 -4 9 3 16 1 16 -6 0 -17 26 -40 36 -32 5
4 2 -2 -6 -12 -14 -18 -13 -19 8 -14 20 6 22 4 10 -10 -11 -13 -11 -14 1 -8
16 10 104 -81 94 -98 -4 -6 2 -4 13 4 10 8 16 11 12 6 -4 -5 0 -15 8 -24 14
-13 17 -13 26 -1 8 11 9 10 4 -3 -8 -25 3 -48 20 -41 8 3 14 -1 14 -10 0 -8 7
-18 16 -21 8 -3 12 -10 9 -16 -3 -6 1 -7 10 -4 8 4 23 -2 33 -13 9 -10 13 -12
8 -3 -5 8 15 -11 45 -42 47 -51 56 -56 74 -46 11 6 17 8 13 3 -8 -9 16 -35 32
-35 7 0 10 -6 7 -13 -3 -8 1 -14 9 -14 7 0 11 5 8 11 -3 6 1 3 9 -6 8 -10 21
-18 30 -18 9 0 22 -8 29 -17 16 -23 55 -53 44 -36 -4 8 -1 13 9 13 9 0 13 -4
10 -10 -3 -5 2 -10 12 -10 15 0 16 -2 3 -10 -12 -8 -9 -10 13 -10 18 0 26 -4
21 -11 -4 -7 2 -6 17 2 22 11 23 11 10 -5 -12 -14 -12 -16 4 -10 12 5 16 4 12
-3 -7 -11 42 -36 69 -36 8 0 14 -4 14 -9 0 -4 7 -8 15 -8 9 0 15 -10 16 -22 1
-22 1 -22 9 2 6 18 8 20 9 7 1 -10 6 -15 11 -12 6 4 18 1 27 -7 9 -7 14 -8 10
-2 -3 6 0 11 8 11 8 0 12 -3 10 -7 -2 -3 0 -12 5 -20 7 -12 11 -12 26 1 10 8
15 10 12 4 -3 -5 0 -16 8 -23 8 -7 14 -8 14 -2 0 5 5 10 10 10 7 0 7 -8 -1
-23 -9 -18 -9 -20 1 -10 10 9 19 9 33 2 15 -9 18 -8 11 3 -6 11 -5 11 9 -1 9
-7 26 -11 36 -8 14 3 18 1 14 -9 -5 -13 19 -20 56 -15 7 2 10 -2 6 -8 -4 -7 1
-8 17 -2 16 6 27 3 42 -11 12 -10 30 -18 41 -16 11 1 30 -3 42 -10 30 -17 41
-15 17 3 -18 14 -18 14 4 8 12 -3 22 -9 22 -14 0 -5 5 -9 11 -9 5 0 8 4 5 8
-3 5 2 9 10 9 10 0 11 -4 4 -11 -14 -14 -12 -26 5 -26 8 0 15 6 15 13 0 8 3 8
8 2 10 -15 54 -17 46 -3 -5 7 -2 8 7 2 8 -5 28 -10 44 -11 52 -2 61 -4 48 -10
-44 -17 26 -22 342 -23 294 0 358 2 370 13 8 8 12 16 10 19 -2 2 4 4 15 4 10
0 16 -4 14 -8 -10 -15 9 -8 23 9 8 10 12 12 8 6 -4 -8 1 -13 14 -13 10 0 22 6
24 13 4 9 6 8 6 -2 1 -11 4 -11 18 0 9 8 14 9 11 3 -4 -6 3 -10 17 -10 13 0
21 4 18 10 -4 5 1 7 12 2 16 -6 16 -4 4 11 -8 9 -9 14 -2 10 6 -4 14 -3 18 3
4 6 12 7 18 3 19 -11 47 -11 47 1 0 6 5 4 10 -4 7 -11 10 -11 10 -2 0 10 5 10
20 2 16 -8 20 -8 18 2 -2 7 5 12 14 12 10 -1 16 2 13 6 -3 4 2 10 10 14 8 3
17 0 21 -6 4 -7 13 -2 24 12 13 17 19 20 25 10 6 -9 4 -11 -5 -5 -9 5 -11 4
-6 -4 11 -16 26 -3 19 16 -4 11 -2 14 5 9 6 -4 20 -2 30 3 13 7 23 6 32 -2 10
-9 11 -9 6 0 -5 9 0 13 14 13 14 0 20 5 17 13 -3 8 3 14 14 14 11 1 17 -2 14
-7 -3 -4 4 -6 15 -3 11 3 17 10 13 17 -4 6 2 4 12 -4 10 -8 16 -10 12 -4 -3 6
1 20 9 30 9 10 13 13 9 7 -8 -17 7 -17 24 -1 11 10 13 10 7 1 -4 -7 -2 -13 3
-13 6 0 11 5 11 11 0 5 6 7 13 3 9 -6 9 -4 -1 8 -11 13 -8 15 17 12 17 -2 33
1 36 6 4 6 12 7 18 3 7 -4 5 2 -3 13 -8 10 -10 16 -6 12 5 -4 14 0 21 9 9 13
14 13 20 3 6 -9 4 -11 -5 -5 -9 5 -11 4 -6 -3 5 -9 14 -7 32 4 22 15 36 32 14
19 -5 -3 -10 -4 -10 -1 0 3 10 10 21 17 13 7 19 7 15 1 -4 -6 2 -10 13 -9 16
1 18 5 9 20 -7 14 -7 18 1 12 7 -4 18 -2 26 5 7 6 22 10 32 8 12 -2 18 3 17
14 -1 9 4 14 11 12 7 -3 20 5 29 17 8 13 19 19 23 15 5 -5 2 -11 -4 -13 -7 -3
-13 -10 -13 -16 1 -7 9 -2 19 11 11 12 24 22 29 22 6 0 8 10 5 22 -4 19 -3 20
6 8 7 -9 11 -10 11 -3 0 7 9 10 21 8 16 -3 18 -1 10 9 -16 19 10 41 27 24 9
-9 12 -9 12 1 0 8 6 11 16 7 8 -3 12 -2 9 4 -3 6 1 13 9 16 9 3 13 10 10 15
-3 5 2 12 10 15 9 3 13 11 9 18 -3 6 -1 6 8 -2 16 -14 33 -16 24 -2 -3 5 -2
10 4 10 6 0 8 6 5 13 -3 8 2 14 10 14 8 0 13 -3 11 -7 -2 -4 2 -7 10 -7 8 0
12 4 9 9 -3 4 4 18 15 30 15 15 21 18 21 7 1 -8 8 -1 16 14 8 16 20 25 26 21
6 -4 8 -3 5 3 -4 6 5 15 19 22 21 9 24 14 14 26 -10 12 -8 13 8 10 12 -2 27 4
34 13 10 12 10 14 1 8 -7 -4 -13 -2 -13 3 0 6 7 11 16 11 11 0 14 5 10 16 -6
15 -4 15 11 3 9 -8 14 -9 10 -3 -4 7 0 15 9 18 9 3 14 13 11 21 -4 9 -1 12 9
8 13 -5 19 8 15 31 -1 5 5 3 14 -4 13 -11 15 -10 9 4 -5 13 -2 17 12 14 10 -2
19 3 20 10 1 6 2 20 3 30 1 15 3 15 11 2 8 -13 10 -12 11 5 1 11 1 24 0 28 -1
5 8 11 19 14 13 3 19 11 16 19 -5 13 5 18 20 12 10 -5 25 32 18 44 -4 7 -3 8
4 4 8 -4 12 0 12 11 0 14 2 15 9 4 6 -9 11 -10 15 -2 4 6 4 11 0 11 -3 0 -1 7
6 15 11 13 10 15 -6 9 -18 -5 -18 -5 -1 6 9 6 15 15 12 20 -3 5 0 12 6 16 8 4
9 3 5 -4 -4 -7 -3 -12 3 -12 5 0 13 9 16 20 3 11 13 20 21 20 12 0 13 4 3 21
-6 12 -7 19 -1 16 5 -4 18 1 28 9 10 9 14 13 8 10 -6 -3 -11 1 -11 9 0 8 3 14
6 13 20 -2 31 3 26 12 -3 6 -1 10 4 10 6 0 11 5 11 11 0 5 -4 8 -9 4 -5 -3
-13 0 -17 6 -4 7 -3 9 3 6 5 -3 25 10 44 29 19 20 30 35 24 34 -27 -6 -27 2 0
20 17 11 25 20 19 20 -5 0 -14 -3 -20 -8 -5 -4 -1 0 8 10 10 9 18 24 18 33 0
9 4 14 8 11 4 -2 13 4 20 14 8 13 8 21 1 25 -7 5 -6 11 2 21 6 7 14 12 18 10
3 -2 12 3 20 11 12 13 11 14 -10 8 -23 -7 -23 -7 -4 8 17 13 18 17 5 33 -13
15 -13 16 -1 9 11 -6 13 -4 8 9 -5 14 -3 17 8 12 9 -3 19 3 25 14 7 14 7 20 0
20 -5 0 -10 5 -10 11 0 5 5 7 11 3 8 -5 8 -1 0 14 -8 15 -8 23 1 28 7 5 8 3 3
-6 -6 -9 -4 -11 4 -6 7 5 10 15 7 23 -3 8 -2 12 3 9 5 -3 11 1 15 9 3 8 0 15
-7 15 -8 0 -9 2 -1 8 6 4 10 15 8 24 -1 10 3 21 8 25 7 3 8 1 4 -5 -4 -7 -2
-12 3 -12 6 0 12 11 12 25 2 37 3 43 11 50 4 4 4 13 2 20 -3 7 3 15 13 18 16
4 16 5 1 6 -10 0 -18 5 -18 11 0 5 6 9 13 7 8 -1 12 10 11 31 0 17 4 32 9 32
5 0 3 8 -4 17 -10 11 -10 14 -2 9 9 -5 12 0 10 16 -1 16 3 23 15 22 10 -1 14
4 11 12 -2 7 -12 11 -21 8 -9 -3 -7 1 6 7 23 13 30 29 11 29 -8 0 -8 4 0 14 9
10 9 16 1 21 -8 5 -8 10 0 20 8 10 7 14 -2 18 -11 4 -10 6 0 6 7 1 10 6 7 11
-3 6 -1 10 6 10 9 0 9 3 0 14 -8 9 -8 16 -2 20 5 4 8 15 6 26 -2 12 0 18 5 15
5 -3 7 -14 5 -25 -2 -11 0 -22 4 -24 4 -3 8 146 10 330 2 266 0 339 -11 352
-10 12 -10 14 0 8 9 -6 12 -1 10 18 -2 14 -8 29 -13 33 -4 5 -5 2 0 -6 6 -10
4 -12 -4 -6 -7 4 -11 16 -8 26 3 10 1 22 -5 25 -6 4 -5 10 3 15 11 7 11 9 1 9
-7 0 -10 5 -7 10 3 6 1 10 -5 10 -6 0 -8 5 -5 10 4 6 12 7 18 3 8 -5 8 -2 0 9
-7 8 -9 19 -5 24 4 4 -1 3 -10 -4 -14 -11 -16 -10 -11 7 3 13 1 21 -6 21 -7 0
-11 8 -9 18 1 9 -2 23 -6 31 -7 11 -5 13 9 7 18 -6 18 -6 -1 15 -11 14 -13 19
-4 14 12 -7 13 -6 3 7 -7 8 -10 18 -6 21 5 6 -10 11 -28 9 -3 -1 -6 6 -6 14 0
10 4 11 11 4 5 -5 14 -10 19 -10 5 0 1 7 -8 16 -9 9 -14 22 -12 29 3 6 -4 17
-15 24 -11 7 -17 15 -14 18 3 4 0 13 -7 22 -10 14 -10 14 4 4 13 -10 16 -10
16 2 0 8 -7 15 -14 15 -8 0 -11 4 -8 10 3 5 -2 22 -11 37 -14 24 -14 25 0 9
20 -25 21 -14 1 23 -8 16 -11 32 -7 37 4 5 0 3 -8 -3 -13 -10 -15 -8 -14 15 0
15 -4 30 -9 34 -7 4 -6 12 3 23 11 13 11 16 0 13 -7 -2 -19 7 -25 19 -7 13
-15 20 -20 15 -4 -4 -2 4 5 17 8 15 8 21 1 17 -6 -4 -11 -2 -11 4 0 6 -5 8
-12 4 -7 -5 -8 -3 -2 7 14 22 15 44 1 30 -20 -20 -31 -12 -11 10 10 11 14 20
9 19 -6 -2 -17 -2 -25 -1 -13 1 -13 2 0 11 9 6 10 10 3 10 -6 0 -10 9 -8 20 3
14 -2 20 -15 20 -10 0 -21 7 -24 16 -6 15 -4 15 10 3 16 -13 16 -12 5 9 -7 13
-18 21 -26 19 -9 -4 -11 1 -8 14 3 10 0 19 -6 19 -6 0 -8 7 -4 17 5 11 3 14
-6 8 -10 -6 -11 -2 -6 16 5 19 4 21 -4 9 -8 -11 -11 -12 -11 -2 0 7 -5 10 -11
6 -7 -4 -7 1 1 16 6 12 9 24 6 28 -3 3 -6 -1 -6 -9 -1 -10 -4 -9 -11 4 -6 9
-14 15 -19 12 -4 -3 -6 4 -3 15 3 12 0 20 -6 20 -7 0 -9 5 -5 12 4 6 3 8 -4 4
-6 -3 -18 1 -27 10 -13 13 -13 19 -3 33 7 9 9 13 4 9 -5 -4 -15 0 -23 8 -8 8
-19 11 -25 8 -7 -4 -8 -2 -4 4 4 6 14 9 24 6 13 -5 14 -4 3 4 -8 6 -10 15 -6
23 5 8 -2 5 -16 -6 -13 -11 -18 -13 -11 -4 6 9 9 19 5 22 -3 4 2 7 11 7 10 0
16 5 14 12 -3 7 8 25 24 40 15 15 28 36 28 47 0 11 5 23 10 26 8 5 7 11 -1 21
-6 7 -16 11 -21 8 -5 -3 -4 4 4 15 11 18 11 23 -2 31 -12 8 -12 10 -1 10 10 0
7 6 -7 18 -17 15 -19 21 -9 31 9 10 8 11 -4 6 -10 -4 -20 -1 -25 6 -5 8 -3 10
5 4 10 -5 9 -2 0 13 -7 12 -17 18 -21 16 -4 -3 -8 2 -8 11 0 9 -4 14 -9 11 -5
-3 -14 1 -21 9 -11 14 -39 10 -51 -8 -4 -5 -9 -5 -13 2 -4 6 -2 11 3 11 6 0
11 5 11 10 0 6 -6 10 -12 8 -19 -3 -59 22 -53 33 4 5 -1 9 -10 9 -9 0 -14 -4
-11 -8 3 -5 -1 -9 -7 -9 -8 0 -12 12 -11 29 1 19 -2 26 -9 21 -24 -15 -64 -10
-75 8 -8 12 -8 19 -2 19 5 0 10 -4 10 -10 0 -5 4 -10 8 -10 5 0 9 7 9 15 0 8
-3 12 -7 10 -4 -2 -17 7 -28 20 -24 28 -28 40 -10 29 7 -4 8 -3 4 5 -4 6 -12
9 -17 6 -5 -4 -9 0 -9 7 0 9 -3 9 -10 -2 -8 -12 -10 -12 -10 -1 0 11 -3 11
-17 0 -9 -8 -14 -9 -10 -3 4 7 -2 12 -18 12 -14 0 -25 -5 -25 -10 0 -6 -6 -5
-14 1 -12 10 -17 8 -25 -7 -6 -11 -8 -21 -6 -24 2 -2 -4 -4 -15 -4 -14 0 -16
3 -8 13 8 10 6 13 -6 13 -9 0 -16 5 -16 11 0 5 6 7 13 3 9 -6 9 -5 0 8 -7 8
-11 17 -8 20 3 2 -2 5 -10 5 -8 0 -12 -4 -9 -8 2 -4 0 -10 -5 -13 -5 -3 -8 8
-7 24 2 33 -3 37 -23 18 -11 -10 -13 -10 -7 0 7 12 -5 16 -33 13 -8 -2 -10 3
-6 11 4 7 1 7 -7 -2 -11 -13 -24 -15 -75 -11 -7 1 -13 8 -13 16 0 9 -6 12 -17
8 -11 -5 -14 -3 -8 6 5 10 2 11 -13 7 -12 -4 -23 -2 -28 5 -4 8 -3 9 4 5 7 -4
10 -2 6 7 -3 8 -16 13 -29 11 -14 -1 -28 3 -32 8 -4 7 -1 8 7 3 9 -5 11 -4 6
4 -6 9 -11 9 -22 0 -12 -10 -15 -10 -12 2 2 8 -2 13 -9 12 -8 -2 -10 4 -6 15
5 13 3 14 -7 5 -10 -9 -18 -6 -37 13 -28 29 -34 30 -27 7 3 -10 -2 -7 -10 7
-10 16 -16 19 -16 10 0 -9 -6 -5 -15 10 -8 14 -14 19 -15 12 0 -10 -4 -10 -16
2 -20 21 -25 20 -18 -1 3 -10 -4 -2 -16 17 -12 19 -19 27 -16 18 3 -10 1 -18
-4 -18 -6 0 -10 5 -10 11 0 5 -4 7 -10 4 -5 -3 -10 0 -10 7 0 9 -3 9 -10 -2
-8 -12 -10 -12 -10 -1 0 22 -33 41 -47 29 -10 -8 -13 -6 -13 8 0 16 -2 17 -10
4 -8 -13 -14 -8 -12 11 1 3 -5 6 -13 6 -8 0 -12 -4 -9 -8 2 -4 -1 -11 -7 -15
-8 -4 -9 -3 -5 4 4 7 2 12 -4 12 -6 0 -9 4 -5 9 3 5 1 13 -5 16 -6 4 -10 3 -9
-2 4 -22 -3 -25 -17 -7 -8 10 -13 14 -10 9 2 -6 -4 -12 -15 -12 -13 -1 -19 5
-19 19 0 18 -2 19 -17 7 -9 -8 -14 -9 -10 -3 4 7 0 15 -9 18 -8 3 -12 2 -9 -4
3 -6 -1 -10 -10 -10 -9 0 -14 4 -10 9 8 13 -36 10 -54 -3 -12 -9 -12 -8 -3 10
10 19 9 21 -11 20 -12 -1 -25 3 -29 9 -5 6 -8 6 -8 -2 0 -7 -7 -10 -15 -7 -8
4 -12 11 -8 18 3 6 1 6 -8 -1 -16 -15 -33 -17 -24 -3 3 6 -2 10 -13 10 -10 0
-22 3 -26 7 -15 15 -38 11 -32 -5 5 -15 4 -15 -8 1 -13 17 -32 25 -22 9 3 -5
-1 -9 -9 -9 -8 0 -11 5 -8 10 4 6 0 8 -9 4 -9 -3 -21 0 -28 6 -10 10 -12 8 -6
-8 6 -19 5 -19 -8 -2 -8 11 -17 14 -20 8 -4 -6 -16 -6 -36 1 -17 5 -28 13 -25
18 2 4 -139 7 -315 7 -176 0 -317 -4 -314 -9z m29 -8 c-3 -5 -12 -10 -18 -10
-7 0 -6 4 3 10 19 12 23 12 15 0z m65 0 c12 -7 10 -9 -8 -7 -12 0 -22 5 -22 9
0 11 12 10 30 -2z m-120 -16 c0 -8 -19 -13 -24 -6 -3 5 1 9 9 9 8 0 15 -2 15
-3z m889 -31 c2 -1 -5 -1 -16 0 -11 0 -20 7 -20 14 0 10 4 10 16 1 9 -7 18
-13 20 -15z m421 -118 c11 -13 10 -14 -4 -9 -9 3 -16 10 -16 15 0 13 6 11 20
-6z m898 -422 c-6 -7 -12 -13 -13 -13 -2 0 -5 6 -8 13 -3 7 3 13 14 13 13 0
15 -3 7 -13z m82 -53 c0 -5 -7 -7 -15 -4 -8 4 -15 8 -15 10 0 2 7 4 15 4 8 0
15 -4 15 -10z m84 -18 c3 -5 -1 -9 -9 -9 -8 0 -12 4 -9 9 3 4 7 8 9 8 2 0 6
-4 9 -8z m-3829 -88 c-11 -8 -19 -20 -17 -25 1 -6 -3 -7 -9 -3 -9 5 -5 13 10
26 13 10 26 18 30 18 3 0 -3 -8 -14 -16z m3955 -108 c0 -2 -7 -9 -15 -16 -13
-11 -14 -10 -9 4 5 14 24 23 24 12z m127 -528 c-3 -8 -6 -5 -6 6 -1 11 2 17 5
13 3 -3 4 -12 1 -19z m98 -178 c3 -5 1 -10 -4 -10 -6 0 -11 5 -11 10 0 6 2 10
4 10 3 0 8 -4 11 -10z m-4898 -1305 c0 -8 -4 -12 -9 -9 -5 3 -6 10 -3 15 9 13
12 11 12 -6z m-1 -34 c-4 -5 -1 -12 4 -14 6 -3 5 -4 -2 -3 -15 3 -23 26 -8 26
6 0 9 -4 6 -9z m4849 -761 c-3 -5 -12 -10 -18 -10 -7 0 -6 4 3 10 19 12 23 12
15 0z m-75 -135 c-7 -8 -17 -15 -23 -15 -6 0 -2 7 9 15 25 19 30 19 14 0z
m-3995 -584 c3 -5 2 -12 -3 -15 -5 -3 -9 1 -9 9 0 17 3 19 12 6z m115 -126
c14 -19 14 -19 -2 -6 -10 7 -18 18 -18 24 0 6 1 8 3 6 1 -2 9 -13 17 -24z
m150 -121 c0 -8 -5 -12 -10 -9 -6 4 -8 11 -5 16 9 14 15 11 15 -7z m2180 -368
c0 -3 -4 -8 -10 -11 -5 -3 -10 -1 -10 4 0 6 5 11 10 11 6 0 10 -2 10 -4z"/>
<path d="M2875 5110 c-3 -5 -1 -10 4 -10 6 0 11 5 11 10 0 6 -2 10 -4 10 -3 0
-8 -4 -11 -10z"/>
<path d="M1683 4975 c0 -8 4 -12 9 -9 5 3 6 10 3 15 -9 13 -12 11 -12 -6z"/>
<path d="M1362 4834 c-7 -8 -8 -14 -3 -14 10 0 25 19 20 25 -2 1 -10 -3 -17
-11z"/>
<path d="M4662 4145 c-17 -37 -14 -45 4 -12 9 16 14 31 11 33 -2 2 -9 -7 -15
-21z"/>
<path d="M4666 4008 c3 -5 10 -6 15 -3 13 9 11 12 -6 12 -8 0 -12 -4 -9 -9z"/>
<path d="M5005 3300 c3 -5 8 -10 11 -10 2 0 4 5 4 10 0 6 -5 10 -11 10 -5 0
-7 -4 -4 -10z"/>
<path d="M4035 470 c-3 -5 -1 -10 4 -10 6 0 11 5 11 10 0 6 -2 10 -4 10 -3 0
-8 -4 -11 -10z"/>
<path d="M2926 12 c-3 -5 1 -9 9 -9 8 0 12 4 9 9 -3 4 -7 8 -9 8 -2 0 -6 -4
-9 -8z"/>
</g>
</svg>
